<svg xmlns="http://www.w3.org/2000/svg" viewBox="0 0 250 250" width="250" height="250">
  <g fill="#3a62f5">
    <path d="m235.6 116-39.27-66.5c-10.16-17.57-23.48-26.1-45.67-26.1h-65.69c-14.93 0-27.69 0.72-37.09 10.12-10.17 10.16-11.61 21.68-4.2 35.92l6.72 11.83 31.53 53.8c12.89 22.23 22.43 33.56 47.74 33.56h74.25c11.83 0 22.12-0.71 28.13-5.93 11.83-10.28 13.82-28.27 3.55-46.7zm-31.82 19.03c-4.31 1.82-15.48 1.45-35.14 1.45-10.02 0-21.61-0.18-31.02-0.33-15.51-0.25-20.89-4.49-28.55-17.7l-26.06-45.71c-6.83-12.54-6.87-19.05 5.48-19.27 7.56-0.57 18.66-0.28 27.43-0.32h27.33c15.04 0 22.52 3.58 32.1 19.09l24.47 40.51c7.63 12.58 9.02 20.18 3.96 22.28z"/>
    <path d="m222.2 186.9-9.88 17.54c-7.73 12.57-19.57 20.3-34.93 20.3h-82.77c-17.35 0-31.6-8.38-40.3-22.66l-40.51-63.76c-10.27-16.17-10.27-32.77-1.39-46.02l8.91-17.85c-2.85 9.4 0 18.8 7.38 31.34l40.51 65.34c9.55 16.21 18.61 25.83 40.67 25.83h74.98c16.17 0 27.73-0.42 37.33-10.06z"/>
  </g>
</svg>